<svg xmlns="http://www.w3.org/2000/svg" xmlns:xlink="http://www.w3.org/1999/xlink" width="1920" zoomAndPan="magnify" viewBox="0 0 1440 809.999993" height="1080" preserveAspectRatio="xMidYMid meet" version="1.0"><defs><clipPath id="ad1eb9e5ad"><path d="M 0 13 L 520 13 L 520 675 L 0 675 Z M 0 13 " clip-rule="nonzero"/></clipPath><clipPath id="d00db7abda"><path d="M -563.707031 360.183594 L 466.378906 -0.03125 L 629.773438 467.226562 L -400.308594 827.4375 Z M -563.707031 360.183594 " clip-rule="nonzero"/></clipPath><clipPath id="0dfff12c27"><path d="M -563.707031 360.183594 L 466.378906 -0.03125 L 629.773438 467.226562 L -400.308594 827.4375 Z M -563.707031 360.183594 " clip-rule="nonzero"/></clipPath><clipPath id="a715eff4f3"><path d="M 262 0 L 922 0 L 922 217 L 262 217 Z M 262 0 " clip-rule="nonzero"/></clipPath><clipPath id="a5cfbcbf54"><path d="M 238.5625 18.292969 L 887.761719 -208.726562 L 990.75 85.785156 L 341.550781 312.804688 Z M 238.5625 18.292969 " clip-rule="nonzero"/></clipPath><clipPath id="b28e57a30b"><path d="M 238.5625 18.292969 L 887.761719 -208.726562 L 990.75 85.785156 L 341.550781 312.804688 Z M 238.5625 18.292969 " clip-rule="nonzero"/></clipPath><clipPath id="0a45cf302d"><path d="M 0 31 L 528 31 L 528 693 L 0 693 Z M 0 31 " clip-rule="nonzero"/></clipPath><clipPath id="9b6b1122f1"><path d="M -555.476562 377.574219 L 474.609375 17.363281 L 638.003906 484.617188 L -392.082031 844.832031 Z M -555.476562 377.574219 " clip-rule="nonzero"/></clipPath><clipPath id="d10c3c39b8"><path d="M -555.476562 377.574219 L 474.609375 17.363281 L 638.003906 484.617188 L -392.082031 844.832031 Z M -555.476562 377.574219 " clip-rule="nonzero"/></clipPath><clipPath id="cc7c999723"><path d="M 882.914062 367.742188 L 1440 367.742188 L 1440 810 L 882.914062 810 Z M 882.914062 367.742188 " clip-rule="nonzero"/></clipPath><clipPath id="d3f486c076"><path d="M 1202.019531 367.742188 C 1025.78125 367.742188 882.914062 510.613281 882.914062 686.851562 C 882.914062 863.089844 1025.78125 1005.960938 1202.019531 1005.960938 C 1378.261719 1005.960938 1521.128906 863.089844 1521.128906 686.851562 C 1521.128906 510.613281 1378.261719 367.742188 1202.019531 367.742188 Z M 1202.019531 367.742188 " clip-rule="nonzero"/></clipPath><clipPath id="b9f887aac8"><path d="M 261 0 L 922 0 L 922 215 L 261 215 Z M 261 0 " clip-rule="nonzero"/></clipPath><clipPath id="f37530ae5d"><path d="M 238.128906 15.953125 L 887.328125 -211.066406 L 990.316406 83.445312 L 341.117188 310.464844 Z M 238.128906 15.953125 " clip-rule="nonzero"/></clipPath><clipPath id="f320296810"><path d="M 238.128906 15.953125 L 887.328125 -211.066406 L 990.316406 83.445312 L 341.117188 310.464844 Z M 238.128906 15.953125 " clip-rule="nonzero"/></clipPath><clipPath id="561748ccd1"><path d="M 0 0 L 360.351562 0 L 360.351562 202.976562 L 0 202.976562 Z M 0 0 " clip-rule="nonzero"/></clipPath><clipPath id="4f186945e2"><path d="M 41.242188 -435.238281 C -134.996094 -435.238281 -277.867188 -292.371094 -277.867188 -116.132812 C -277.867188 60.109375 -134.996094 202.976562 41.242188 202.976562 C 217.480469 202.976562 360.351562 60.109375 360.351562 -116.132812 C 360.351562 -292.371094 217.480469 -435.238281 41.242188 -435.238281 Z M 41.242188 -435.238281 " clip-rule="nonzero"/></clipPath></defs><rect x="-144" width="1728" fill="#ffffff" y="-80.999999" height="971.999992" fill-opacity="1"/><rect x="-144" width="1728" fill="#ffceb6" y="-80.999999" height="971.999992" fill-opacity="1"/><g clip-path="url(#ad1eb9e5ad)"><g clip-path="url(#d00db7abda)"><g clip-path="url(#0dfff12c27)"><path fill="#ad795b" d="M 433.449219 16.375 C 439.058594 14.527344 445.152344 12.667969 450.742188 14.566406 C 456.730469 16.597656 460.519531 22.359375 463.722656 27.8125 C 494.34375 80.019531 513.378906 138.984375 519.050781 199.238281 C 521.855469 229.085938 514.742188 267.976562 485.296875 273.601562 C 462.492188 277.953125 442.953125 258.511719 426.4375 242.199219 C 405.890625 221.910156 383.027344 203.964844 358.449219 188.824219 C 352.519531 185.179688 345.644531 181.554688 338.910156 183.316406 C 329.914062 185.664062 325.992188 196.15625 324.414062 205.328125 C 316.421875 251.78125 332.6875 298.621094 348.957031 342.855469 C 365.230469 387.097656 382.050781 433.585938 375.179688 480.226562 C 368.3125 526.859375 328.640625 572.320312 281.722656 567.8125 C 253.960938 565.144531 230.226562 545.996094 213.609375 523.605469 C 197 501.207031 185.917969 475.273438 171.789062 451.242188 C 154.894531 422.492188 133.53125 396.390625 108.703125 374.136719 C 103.046875 369.070312 96.898438 364.039062 89.480469 362.410156 C 69.425781 358.019531 53.546875 379.53125 46.949219 398.976562 C 31.925781 443.25 33.773438 491.6875 42.660156 537.585938 C 46.722656 558.585938 51.609375 582.542969 38.707031 599.609375 C 21.09375 622.894531 -18.09375 614.96875 -37.652344 593.292969 C -57.199219 571.632812 -64.015625 541.773438 -75.496094 514.949219 C -81.394531 501.148438 -104.449219 461.464844 -122.585938 462.128906 C -152.507812 463.214844 -137.320312 531.828125 -136.839844 550.664062 C -136.066406 581.257812 -138.949219 613.363281 -155.371094 639.191406 C -171.796875 665.023438 -205.113281 682.183594 -233.847656 671.625 C -258.914062 662.398438 -272.972656 636.386719 -284.808594 612.445312 C -299.546875 582.652344 -314.285156 552.855469 -329.015625 523.058594 C -338.296875 504.296875 -347.222656 478.90625 -362.621094 464.230469 C -367.695312 459.402344 -375.054688 456.378906 -381.78125 458.316406 C -386.945312 459.804688 -390.898438 463.875 -394.5625 467.820312 C -407.367188 481.605469 -420.515625 504.324219 -439.304688 510.375 C -449.335938 513.601562 -461.128906 514.691406 -469.695312 508.566406 C -474.792969 504.925781 -477.988281 499.265625 -480.957031 493.753906 C -503.175781 452.449219 -558.40625 375.257812 -499.667969 346.554688 C -437.996094 316.414062 -364.582031 298.578125 -299.960938 274.394531 C -144.65625 216.269531 11.378906 160.117188 168.109375 105.953125 C 256.339844 75.460938 344.789062 45.597656 433.449219 16.375 " fill-opacity="1" fill-rule="nonzero"/></g></g></g><g clip-path="url(#a715eff4f3)"><g clip-path="url(#a5cfbcbf54)"><g clip-path="url(#b28e57a30b)"><path fill="#ad795b" d="M 867.191406 -198.453125 C 870.730469 -199.617188 874.570312 -200.789062 878.09375 -199.589844 C 881.871094 -198.3125 884.257812 -194.679688 886.277344 -191.238281 C 905.582031 -158.328125 917.582031 -121.15625 921.15625 -83.171875 C 922.925781 -64.351562 918.441406 -39.835938 899.878906 -36.289062 C 885.5 -33.546875 873.183594 -45.800781 862.769531 -56.085938 C 849.820312 -68.875 835.40625 -80.1875 819.910156 -89.734375 C 816.171875 -92.03125 811.839844 -94.320312 807.59375 -93.207031 C 801.921875 -91.726562 799.449219 -85.113281 798.453125 -79.332031 C 793.414062 -50.046875 803.667969 -20.515625 813.925781 7.371094 C 824.183594 35.261719 834.789062 64.570312 830.457031 93.972656 C 826.128906 123.371094 801.117188 152.03125 771.539062 149.1875 C 754.039062 147.507812 739.078125 135.433594 728.601562 121.316406 C 718.128906 107.199219 711.144531 90.847656 702.234375 75.699219 C 691.585938 57.574219 678.117188 41.121094 662.464844 27.089844 C 658.898438 23.898438 655.023438 20.726562 650.34375 19.699219 C 637.703125 16.929688 627.691406 30.492188 623.53125 42.75 C 614.0625 70.660156 615.226562 101.195312 620.828125 130.132812 C 623.390625 143.371094 626.472656 158.476562 618.335938 169.234375 C 607.234375 183.914062 582.527344 178.917969 570.199219 165.253906 C 557.878906 151.597656 553.578125 132.773438 546.34375 115.863281 C 542.621094 107.160156 528.089844 82.144531 516.65625 82.5625 C 497.792969 83.246094 507.367188 126.503906 507.667969 138.375 C 508.15625 157.664062 506.339844 177.902344 495.984375 194.1875 C 485.632812 210.472656 464.628906 221.289062 446.511719 214.632812 C 430.710938 208.816406 421.847656 192.417969 414.386719 177.324219 C 405.09375 158.542969 395.804688 139.761719 386.519531 120.976562 C 380.664062 109.148438 375.039062 93.140625 365.332031 83.886719 C 362.132812 80.84375 357.492188 78.9375 353.253906 80.160156 C 349.996094 81.097656 347.503906 83.664062 345.195312 86.148438 C 337.121094 94.839844 328.832031 109.164062 316.988281 112.976562 C 310.664062 115.011719 303.230469 115.699219 297.828125 111.835938 C 294.617188 109.542969 292.601562 105.976562 290.730469 102.5 C 276.722656 76.460938 241.902344 27.796875 278.933594 9.703125 C 317.8125 -9.300781 364.09375 -20.542969 404.832031 -35.789062 C 502.738281 -72.433594 601.109375 -107.832031 699.917969 -141.980469 C 755.539062 -161.203125 811.300781 -180.027344 867.191406 -198.453125 " fill-opacity="1" fill-rule="nonzero"/></g></g></g><g clip-path="url(#0a45cf302d)"><g clip-path="url(#9b6b1122f1)"><g clip-path="url(#d10c3c39b8)"><path fill="#ad795b" d="M 441.675781 33.765625 C 447.289062 31.917969 453.382812 30.0625 458.972656 31.957031 C 464.960938 33.988281 468.75 39.75 471.953125 45.207031 C 502.574219 97.414062 521.605469 156.378906 527.277344 216.628906 C 530.085938 246.480469 522.96875 285.371094 493.523438 290.996094 C 470.71875 295.347656 451.183594 275.90625 434.664062 259.59375 C 414.121094 239.304688 391.257812 221.359375 366.679688 206.21875 C 360.75 202.570312 353.875 198.945312 347.140625 200.710938 C 338.140625 203.054688 334.222656 213.546875 332.644531 222.722656 C 324.648438 269.171875 340.914062 316.015625 357.1875 360.25 C 373.457031 404.488281 390.28125 450.980469 383.410156 497.621094 C 376.542969 544.25 336.867188 589.714844 289.953125 585.203125 C 262.191406 582.539062 238.457031 563.390625 221.839844 540.996094 C 205.226562 518.601562 194.148438 492.664062 180.015625 468.636719 C 163.125 439.886719 141.761719 413.785156 116.933594 391.527344 C 111.277344 386.464844 105.125 381.433594 97.707031 379.804688 C 77.652344 375.410156 61.777344 396.925781 55.179688 416.367188 C 40.15625 460.640625 42.003906 509.078125 50.886719 554.980469 C 54.953125 575.980469 59.839844 599.9375 46.9375 617 C 29.324219 640.285156 -9.867188 632.359375 -29.421875 610.6875 C -48.96875 589.023438 -55.785156 559.167969 -67.265625 532.339844 C -73.167969 518.539062 -96.21875 478.855469 -114.355469 479.523438 C -144.277344 480.609375 -129.089844 549.21875 -128.609375 568.054688 C -127.835938 598.652344 -130.722656 630.753906 -147.144531 656.585938 C -163.566406 682.414062 -196.882812 699.574219 -225.617188 689.015625 C -250.683594 679.792969 -264.742188 653.78125 -276.578125 629.835938 C -291.316406 600.042969 -306.054688 570.25 -320.785156 540.453125 C -330.070312 521.691406 -338.992188 496.296875 -354.394531 481.621094 C -359.464844 476.796875 -366.824219 473.773438 -373.550781 475.710938 C -378.714844 477.199219 -382.667969 481.269531 -386.332031 485.210938 C -399.136719 498.996094 -412.285156 521.71875 -431.078125 527.769531 C -441.105469 530.992188 -452.898438 532.085938 -461.464844 525.957031 C -466.5625 522.320312 -469.757812 516.660156 -472.726562 511.148438 C -494.945312 469.839844 -550.175781 392.652344 -491.4375 363.949219 C -429.765625 333.804688 -356.351562 315.96875 -291.730469 291.785156 C -136.429688 233.660156 19.609375 177.511719 176.339844 123.34375 C 264.570312 92.851562 353.019531 62.988281 441.675781 33.765625 " fill-opacity="1" fill-rule="nonzero"/></g></g></g><g clip-path="url(#cc7c999723)"><g clip-path="url(#d3f486c076)"><path fill="#ad795b" d="M 882.914062 367.742188 L 1521.128906 367.742188 L 1521.128906 1005.960938 L 882.914062 1005.960938 Z M 882.914062 367.742188 " fill-opacity="1" fill-rule="nonzero"/></g></g><g clip-path="url(#b9f887aac8)"><g clip-path="url(#f37530ae5d)"><g clip-path="url(#f320296810)"><path fill="#ad795b" d="M 866.757812 -200.789062 C 870.292969 -201.953125 874.136719 -203.125 877.660156 -201.929688 C 881.4375 -200.648438 883.824219 -197.015625 885.84375 -193.578125 C 905.148438 -160.667969 917.148438 -123.492188 920.722656 -85.507812 C 922.492188 -66.691406 918.007812 -42.171875 899.441406 -38.628906 C 885.066406 -35.882812 872.75 -48.140625 862.335938 -58.425781 C 849.382812 -71.214844 834.972656 -82.527344 819.476562 -92.074219 C 815.738281 -94.371094 811.40625 -96.65625 807.160156 -95.542969 C 801.484375 -94.066406 799.015625 -87.453125 798.019531 -81.667969 C 792.980469 -52.386719 803.234375 -22.855469 813.492188 5.03125 C 823.75 32.921875 834.355469 62.230469 830.023438 91.632812 C 825.695312 121.03125 800.683594 149.691406 771.105469 146.847656 C 753.605469 145.167969 738.640625 133.097656 728.164062 118.980469 C 717.695312 104.859375 710.710938 88.511719 701.800781 73.363281 C 691.152344 55.238281 677.683594 38.78125 662.03125 24.75 C 658.464844 21.558594 654.585938 18.386719 649.910156 17.359375 C 637.269531 14.589844 627.257812 28.152344 623.097656 40.410156 C 613.628906 68.320312 614.792969 98.859375 620.394531 127.792969 C 622.957031 141.035156 626.039062 156.136719 617.902344 166.894531 C 606.800781 181.574219 582.09375 176.578125 569.765625 162.914062 C 557.441406 149.257812 553.144531 130.433594 545.90625 113.523438 C 542.1875 104.824219 527.65625 79.804688 516.222656 80.222656 C 497.355469 80.910156 506.933594 124.164062 507.234375 136.039062 C 507.722656 155.328125 505.902344 175.566406 495.550781 191.847656 C 485.199219 208.132812 464.191406 218.953125 446.078125 212.292969 C 430.277344 206.480469 421.414062 190.082031 413.953125 174.988281 C 404.660156 156.203125 395.371094 137.421875 386.082031 118.636719 C 380.230469 106.808594 374.605469 90.800781 364.894531 81.550781 C 361.699219 78.503906 357.058594 76.597656 352.816406 77.820312 C 349.5625 78.757812 347.070312 81.324219 344.761719 83.8125 C 336.6875 92.503906 328.398438 106.824219 316.550781 110.640625 C 310.230469 112.671875 302.796875 113.359375 297.394531 109.5 C 294.179688 107.207031 292.167969 103.636719 290.296875 100.164062 C 276.289062 74.121094 241.46875 25.460938 278.5 7.363281 C 317.378906 -11.636719 363.660156 -22.882812 404.398438 -38.128906 C 502.304688 -74.773438 600.675781 -110.171875 699.480469 -144.316406 C 755.105469 -163.539062 810.867188 -182.367188 866.757812 -200.789062 " fill-opacity="1" fill-rule="nonzero"/></g></g></g><g clip-path="url(#561748ccd1)"><g clip-path="url(#4f186945e2)"><path fill="#ad795b" d="M -277.867188 -435.238281 L 360.351562 -435.238281 L 360.351562 202.976562 L -277.867188 202.976562 Z M -277.867188 -435.238281 " fill-opacity="1" fill-rule="nonzero"/></g></g></svg>